<?xml version="1.0" encoding="UTF-8"?>
<svg id="_Слой_1" data-name="Слой 1" xmlns="http://www.w3.org/2000/svg" viewBox="0 0 701.22 919.25">
  <defs>
    <style>
      .cls-1 {
        fill: #fff;
      }

      .cls-2 {
        fill: #be1622;
      }

      .cls-3 {
        fill: #e94e1b;
      }

      .cls-4 {
        fill: #f9a618;
      }

      .cls-5 {
        fill: #ffcb06;
      }

      .cls-6 {
        fill: #1d1d1b;
      }

      .cls-7 {
        fill: #f25826;
      }
    </style>
  </defs>
  <ellipse class="cls-5" cx="429.1" cy="878.21" rx="23.57" ry="21.83" transform="translate(-362.21 304.44) rotate(-28.01)"/>
  <path class="cls-7" d="M417.4,890.27c-1.51,2.31-.69,5.43,1.68,6.84,7.58,4.52,13.17,6.87,28.79,21.21,4.2,3.85,49.15-4.98,53.74-15.7,4.6-10.72-58.34-18-64.85-18.38-5.23-.31-15.67,.37-19.36,6.03Z"/>
  <path class="cls-5" d="M533.75,601.77s77.64,73.49,79.94,143.2-40.22,59.58-64.79,55.45-18.19-91.7-18.19-91.7l3.04-106.94Z"/>
  <path class="cls-5" d="M167.39,601.77s-77.64,73.49-79.94,143.2,40.22,59.58,64.79,55.45,18.19-91.7,18.19-91.7l-3.04-106.94Z"/>
  <path class="cls-5" d="M458.65,549.79c71.42,30.79,119.96,91.16,119.96,160.58,0,100.69-102.1,182.32-228.05,182.32s-228.05-81.63-228.05-182.32c0-69.44,48.56-129.81,120-160.59C101.77,513.16,0,406.98,0,281.71,0,126.13,156.97,0,350.61,0s350.61,126.13,350.61,281.71c0,125.29-101.8,231.48-242.57,268.08Z"/>
  <circle class="cls-4" cx="350.56" cy="344.24" r="54.77"/>
  <g>
    <path class="cls-3" d="M480.15,392.98c-7.85,4.43-22.38,9.76-35.99-.53-19-14.36-59.21-19.52-129.71,6.13-33.45,12.18-79.05-5.88-91.21-11.2,7.03-14.57,20.97-25.21,30.34-31.09,25.57-16.06,60.01-24.9,96.98-24.9s71.41,8.84,96.98,24.9c10.53,6.61,26.84,19.23,32.61,36.69Z"/>
    <path class="cls-3" d="M482.26,405.9c0,24.2-21.75,41.47-34.72,49.61-25.57,16.06-60.01,24.9-96.98,24.9s-71.41-8.84-96.98-24.9c-10.98-6.89-28.25-20.32-33.29-38.96,13.38,3.18,50.71,8.02,110.16-14.9,75.92-29.28,67.41,8.17,112.68,12.25,23.47,2.12,34.14-4.63,38.96-11.63,.11,1.19,.17,2.4,.17,3.63Z"/>
    <path class="cls-2" d="M350.56,309.39c-84.89,0-153.7,43.21-153.7,96.51s68.81,96.51,153.7,96.51,153.7-43.21,153.7-96.51-68.81-96.51-153.7-96.51Zm-96.98,46.9c25.57-16.06,60.01-24.9,96.98-24.9s71.41,8.84,96.98,24.9c10.53,6.61,26.84,19.23,32.61,36.69-7.85,4.43-22.38,9.76-35.99-.53-19-14.36-59.21-19.52-129.71,6.13-33.45,12.18-79.05-5.88-91.21-11.2,7.03-14.57,20.97-25.21,30.34-31.09Zm193.96,99.22c-25.57,16.06-60.01,24.9-96.98,24.9s-71.41-8.84-96.98-24.9c-10.98-6.89-28.25-20.32-33.29-38.96,13.38,3.18,50.71,8.02,110.16-14.9,75.92-29.28,67.41,8.17,112.68,12.25,23.47,2.12,34.14-4.63,38.96-11.63,.11,1.19,.17,2.4,.17,3.63,0,24.2-21.75,41.47-34.72,49.61Z"/>
  </g>
  <g>
    <path d="M379.75,617.32c.2,3.32,.03,6.84-.52,10.57s-1.18,5.61-1.9,5.65c-.39,.02-.6-.16-.62-.55-.03-.45,0-.88,.12-1.28,1.25-4.06,1.71-8.76,1.38-14.09-.5-8.2-3.39-14.64-8.65-19.31-5.26-4.67-11.98-6.76-20.14-6.26-15.68,.96-30.42,9.39-44.2,25.27,6.21,10.08,9.67,20.92,10.39,32.52,1.31,21.37-5.73,39.98-21.11,55.83-15.38,15.85-34.84,24.5-58.36,25.95-7.26,.45-17.26,.05-30.02-1.2-10.83,2.69-21.26,4.35-31.3,4.96-17.11,1.05-25.76-.15-25.98-3.6-.1-1.69,1.89-3.32,5.99-4.88,4.1-1.56,8.93-2.51,14.51-2.85,6.74-.41,20.29,.98,40.65,4.17,13.32-4.41,23.63-10.7,30.94-18.87,7.12-7.96,17.75-24.99,31.89-51.1,8.52-15.83,18.12-29.46,28.8-40.91-10.44-15.45-26.26-22.52-47.45-21.22-21.9,1.34-41.45,11.24-58.66,29.69-8.66,9.29-15.43,19.39-20.29,30.28-4.86,10.89-7.02,20.77-6.47,29.63,.43,7.04,3,12.53,7.69,16.5,4.7,3.96,10.71,5.72,18.03,5.27,12.38-.76,24.81-8.26,37.3-22.5,12.49-14.24,18.36-27.54,17.6-39.92-.29-4.69-1.82-8.39-4.58-11.1-2.77-2.71-6.26-3.93-10.47-3.67-4.8,.29-7.14,1.22-7.05,2.79,.03,.46,.4,.66,1.11,.62,.39-.02,.71-.11,.96-.25l1.36-.08c3.17-.2,4.85,1.17,5.03,4.1,.13,2.15-.56,4.07-2.08,5.77-1.52,1.7-3.39,2.61-5.59,2.75-3.95,.24-6.06-1.79-6.32-6.09-.18-2.93,.96-5.52,3.43-7.76,2.46-2.24,5.54-3.48,9.24-3.71,4.73-.29,8.66,1.06,11.81,4.03,3.14,2.98,4.87,7.01,5.18,12.09,.81,13.16-5.19,27.03-17.98,41.61-12.8,14.58-25.74,22.28-38.83,23.08-9.01,.55-16.61-2-22.81-7.67-6.2-5.67-9.59-13.22-10.17-22.67-1.24-20.26,7.59-39.03,26.49-56.31,18.9-17.28,40.9-26.69,65.97-28.23,21.32-1.31,37.87,5.62,49.66,20.79,14.91-15.63,30.53-23.94,46.86-24.95,8.16-.5,14.94,1.75,20.32,6.74,5.38,5,8.33,11.79,8.86,20.37Zm-177.07,112.72c-18.04-1.44-31.47-1.89-40.28-1.35-7.78,.48-11.62,1.46-11.52,2.96,.14,2.28,8.7,2.9,25.67,1.86,9.72-.6,18.43-1.75,26.13-3.47Zm107.23-87.11c-.51-8.34-2.74-16.05-6.69-23.13-8.13,10.57-15.2,23.66-21.2,39.26-7.9,20.69-16.47,35.77-25.71,45.23-9.55,9.68-23.91,17.85-43.08,24.52,8.34,1.25,17.15,1.6,26.43,1.03,24.84-1.53,44.2-14.84,58.09-39.96,9.03-16.25,13.08-31.9,12.16-46.95Z"/>
    <path d="M383.51,687.2c.09,1.5-4.22,8.12-12.94,19.85-7.22,9.74-13.09,14.75-17.63,15.03-2.86,.17-5.34-.83-7.46-3.02-2.12-2.19-3.28-4.92-3.48-8.17-.16-2.54,.89-6.17,3.14-10.88l-1.78,2.76c-5.49,8.05-9.55,13.47-12.17,16.24-2.87,3.12-5.66,4.76-8.38,4.93-2.85,.17-5.32-.8-7.4-2.93-2.08-2.13-3.22-4.82-3.42-8.08-.23-3.78,.96-8.2,3.58-13.27l15.85-30.99c2.23,.32,3.96,.44,5.19,.37,1.23-.08,3.42-.44,6.57-1.09l-20.78,39.72c-2.09,4.05-3.05,7.58-2.86,10.57,.18,2.93,1.5,4.32,3.96,4.17,6.54-.4,16.29-13.33,29.23-38.77l8.53-16.81c2.04,.33,3.73,.46,5.1,.37,1.62-.1,3.91-.47,6.86-1.11l-13.98,26.46c-6.64,12.57-9.86,20.58-9.65,24.04,.17,2.8,1.59,4.12,4.25,3.96,5.19-.32,13.12-9.06,23.79-26.22l2.76-4.39,1.62-2.26c.29-.67,.59-1.02,.91-1.04,.39-.02,.59,.16,.62,.55Z"/>
    <path d="M431.71,684.24c.05,.85-4.18,6.61-12.71,17.28-9.31,11.57-17.47,17.58-24.48,18.01-4.54,.28-8.54-1.23-12-4.51-3.46-3.28-5.33-7.34-5.63-12.16-.34-5.47,1.52-11.28,5.57-17.41,4.05-6.13,9.66-11.54,16.86-16.24,6.06-4.03,11.07-6.17,15.02-6.42,4.79-.29,7.37,2.43,7.72,8.16,.28,4.49-.95,9.08-3.69,13.76-2.74,4.68-5.6,7.11-8.58,7.29-2.92,.18-4.46-1.2-4.64-4.13-.21-3.45,2.57-6.83,8.35-10.12,4.46-2.56,6.58-5.7,6.35-9.41-.18-2.93-1.86-4.3-5.03-4.11-5.38,.33-11.66,6.11-18.84,17.34-7.18,11.23-10.55,20.49-10.1,27.79,.38,6.12,3.42,9.01,9.13,8.66,8.95-.55,20.46-11.44,34.52-32.67,.78-1.09,1.36-1.65,1.75-1.68,.26,.05,.4,.24,.42,.56Z"/>
    <path d="M479.02,611.84c-.46,.95-1.19,2.33-2.18,4.16-1.52,2.84-3.79,7.07-6.83,12.68-1.45,2.9-3.69,7.26-6.71,13.07l-15.05,28.19c-5.02,9.4-9.24,17.9-12.68,25.5-3.84,8.47-6.95,15.04-9.33,19.7l-1.14,2.03c-1.77-.28-3.5-.37-5.19-.27-1.43,.09-3.52,.41-6.28,.97,1.33-2.63,2.81-5.6,4.43-8.9l10.06-20.43c1.5-3.04,3.76-7.62,6.76-13.75l31.98-62.19c2.69,.36,4.68,.5,5.98,.42,1.29-.08,3.35-.47,6.17-1.16Zm12.66,68.72c-.05,.2-.35,.74-.88,1.63l-3.83,6.03c-11.21,17.78-19.93,26.86-26.16,27.25-2.79,.17-5.31-.62-7.57-2.38-2.26-1.76-3.46-3.85-3.61-6.26-.13-2.09,1.4-6.86,4.58-14.33l.07-.4c1.08-2.49,1.59-4.32,1.52-5.5-.09-1.43-1.24-2.71-3.45-3.81-2.4,1.2-4.41,1.84-6.03,1.94-2.27,.14-3.44-.44-3.52-1.75-.07-1.11,.97-1.72,3.1-1.86,2.07-.13,4.01,.08,5.79,.62,3.15-1.63,8.04-6.79,14.66-15.48,3.55-4.65,7.33-7.11,11.35-7.35,4.92-.3,7.53,1.89,7.82,6.58,.19,3.13-.87,6.32-3.17,9.56-2.31,3.25-4.69,4.95-7.15,5.1-2.79,.17-4.26-1.01-4.41-3.55-.14-2.34,1.81-4.98,5.85-7.91,1.68-1.21,2.46-2.83,2.34-4.85-.1-1.56-1.15-2.28-3.16-2.16-2.79,.17-6.13,2.86-10.04,8.05-5,6.5-9.14,10.61-12.41,12.31,6.93,2.72,10.52,6.13,10.77,10.24,.14,2.28-1.18,6.79-3.95,13.5-1.19,2.82-1.76,4.76-1.69,5.8,.1,1.7,1.22,2.48,3.36,2.35,6.09-.37,15.4-11.33,27.93-32.86,.41-.68,.81-1.03,1.2-1.05,.42-.03,.64,.16,.67,.55Z"/>
    <path d="M522.06,640.64c.16,2.6-3.57,8.01-11.2,16.23-.27,2.04-.35,3.82-.26,5.31,.23,3.78,2.32,9.67,6.26,17.66,2,4,3.09,7.4,3.26,10.2,.36,5.86-2.16,11.12-7.57,15.76-5.41,4.65-12,7.21-19.77,7.69-4.41,.27-8-.77-10.78-3.12-2.78-2.35-4.3-5.64-4.56-9.87-.3-4.88,1.14-9.75,4.32-14.59,3.18-4.84,6.62-7.37,10.31-7.6,.65-.04,1.24,.05,1.77,.28l7.19-10.05c2.16-2.94,5.03-7.01,8.62-12.2,.82-4.63,2.27-8.64,4.33-12.04,2.07-3.4,4.2-5.16,6.41-5.3,1.04-.06,1.59,.47,1.66,1.61Zm-11.14,39.38c-.12-1.95-.3-3.89-.55-5.8-.25-1.91-.48-4.66-.7-8.25-.18-2.93-.2-5.38-.06-7.35-3.35,4.85-8.19,11.69-14.54,20.51,1.29,.97,1.99,2.2,2.08,3.7,.24,3.84-2.75,6.64-8.95,8.4-2.49,.74-4.59,2.26-6.31,4.56-1.71,2.3-2.49,4.65-2.35,7.06,.16,2.61,1.23,4.73,3.22,6.37,1.99,1.64,4.37,2.38,7.16,2.21,5.44-.33,10.41-3.83,14.92-10.48,4.5-6.65,6.53-13.63,6.08-20.92Z"/>
  </g>
  <circle class="cls-4" cx="556.29" cy="442.67" r="32.17"/>
  <circle class="cls-4" cx="147.1" cy="442.67" r="32.17"/>
  <g id="_глаз" data-name="глаз">
    <path class="cls-1" d="M166.16,272.18c-10.44,70.35-35,128.2-60.75,149.43-7.97,6.57-16.05,9.64-23.86,8.48-33.05-4.91-48.76-83.56-35.09-175.67,11.41-76.89,39.69-138.86,67.95-154.38,5.6-3.09,11.19-4.34,16.66-3.53,33.05,4.91,48.76,83.56,35.09,175.67Z"/>
    <path class="cls-6" d="M166.16,272.18c-10.44,70.35-35,128.2-60.75,149.43-28.66-13.24-45.85-85.5-39.06-170.77,5.46-68.53,24.86-126.31,48.06-150.8,5.6-3.09,11.19-4.34,16.66-3.53,33.05,4.91,48.76,83.56,35.09,175.67Z"/>
    <ellipse class="cls-1" cx="116.31" cy="146.73" rx="15.83" ry="19.55"/>
  </g>
  <g id="_глаз-2" data-name="глаз">
    <path class="cls-1" d="M536.99,273.16c10.44,70.35,35,128.2,60.75,149.43,7.97,6.57,16.05,9.64,23.86,8.48,33.05-4.91,48.76-83.56,35.09-175.67-11.41-76.89-39.69-138.86-67.95-154.38-5.6-3.09-11.19-4.34-16.66-3.53-33.05,4.91-48.76,83.56-35.09,175.67Z"/>
    <path class="cls-6" d="M536.99,273.16c10.44,70.35,35,128.2,60.75,149.43,28.66-13.24,45.85-85.5,39.06-170.77-5.46-68.53-24.86-126.31-48.06-150.8-5.6-3.09-11.19-4.34-16.66-3.53-33.05,4.91-48.76,83.56-35.09,175.67Z"/>
    <ellipse class="cls-1" cx="586.84" cy="147.71" rx="15.83" ry="19.55"/>
  </g>
  <ellipse class="cls-5" cx="272.12" cy="878.21" rx="21.83" ry="23.57" transform="translate(-631 705.96) rotate(-61.99)"/>
  <path class="cls-7" d="M283.82,890.27c1.51,2.31,.69,5.43-1.68,6.84-7.58,4.52-13.17,6.87-28.79,21.21-4.2,3.85-49.15-4.98-53.74-15.7-4.6-10.72,58.34-18,64.85-18.38,5.23-.31,15.67,.37,19.36,6.03Z"/>
  <g>
    <path d="M226.41,755.63v-.07c0-3.98,.58-7.6,1.73-10.86,1.15-3.26,2.81-6.06,4.97-8.4,2.16-2.34,4.76-4.16,7.8-5.45,3.03-1.29,6.43-1.94,10.2-1.94h.07c2.96,0,5.81,.42,8.54,1.27,2.73,.85,5.24,2.29,7.55,4.33l-3.03,4.33c-1.79-1.54-3.79-2.69-6-3.43-2.21-.75-4.56-1.12-7.06-1.12h-.07c-2.87,0-5.49,.52-7.87,1.57-2.38,1.05-4.41,2.51-6.1,4.41-1.69,1.89-3,4.14-3.92,6.76-.92,2.61-1.38,5.46-1.38,8.55v.07c0,3.14,.47,6.01,1.41,8.62,.94,2.61,2.26,4.87,3.95,6.76s3.72,3.36,6.07,4.4c2.35,1.05,4.96,1.57,7.83,1.57h.07c5.17,0,9.53-1.52,13.05-4.55l3.03,4.33c-2.26,1.99-4.73,3.42-7.41,4.29-2.68,.87-5.57,1.31-8.68,1.31h-.07c-3.76,0-7.16-.65-10.2-1.94-3.03-1.29-5.63-3.11-7.8-5.45-2.16-2.34-3.82-5.15-4.97-8.44-1.15-3.28-1.73-6.92-1.73-10.9Z"/>
    <path d="M272.55,755.63v-.07c0-3.98,.59-7.6,1.76-10.86,1.18-3.26,2.85-6.06,5.01-8.4,2.16-2.34,4.77-4.16,7.83-5.45,3.06-1.29,6.47-1.94,10.23-1.94h.07c3.76,0,7.17,.65,10.23,1.94,3.06,1.29,5.66,3.11,7.8,5.45,2.14,2.34,3.8,5.14,4.97,8.4,1.17,3.26,1.76,6.88,1.76,10.86v.07c0,3.98-.59,7.62-1.76,10.9-1.18,3.29-2.83,6.1-4.97,8.44-2.14,2.34-4.74,4.16-7.8,5.45-3.06,1.29-6.47,1.94-10.23,1.94h-.07c-3.76,0-7.17-.65-10.23-1.94-3.06-1.29-5.67-3.11-7.83-5.45-2.16-2.34-3.83-5.15-5.01-8.44-1.18-3.28-1.76-6.92-1.76-10.9Zm5.43,0c0,3.19,.46,6.1,1.38,8.74,.92,2.64,2.22,4.89,3.92,6.76,1.69,1.87,3.74,3.31,6.14,4.33,2.4,1.02,5.06,1.53,7.97,1.53h.07c2.92,0,5.56-.51,7.94-1.53,2.37-1.02,4.41-2.46,6.1-4.33,1.69-1.87,3-4.12,3.92-6.76,.92-2.64,1.38-5.55,1.38-8.74v-.07c0-3.18-.46-6.08-1.38-8.7-.92-2.61-2.22-4.85-3.92-6.72-1.69-1.87-3.73-3.31-6.1-4.33-2.38-1.02-5.02-1.53-7.94-1.53h-.07c-2.92,0-5.57,.51-7.97,1.53-2.4,1.02-4.44,2.46-6.14,4.33-1.69,1.87-3,4.11-3.92,6.72-.92,2.61-1.38,5.51-1.38,8.7v.07Z"/>
    <path d="M363.29,729.8v5.45h-26.46v18.44h24.06v5.52h-24.06v22.25h-5.43v-51.67h31.89Z"/>
    <path d="M403.51,729.8v5.45h-26.46v18.44h24.06v5.52h-24.06v22.25h-5.43v-51.67h31.89Z"/>
    <path d="M443.72,729.8v5.38h-26.46v17.92h24.06v5.38h-24.06v17.62h26.46v5.38h-31.89v-51.67h31.89Z"/>
    <path d="M484.86,729.8v5.38h-26.46v17.92h24.06v5.38h-24.06v17.62h26.46v5.38h-31.89v-51.67h31.89Z"/>
  </g>
  <g>
    <path d="M297.45,801.85c-1.1-2.69-2.81-4.84-5.11-6.46-2.3-1.62-5.27-2.43-8.9-2.43h-.07c-3.96,0-6.99,.76-9.11,2.28-2.12,1.52-3.17,3.55-3.17,6.08,0,1.74,.59,3.39,1.76,4.93,1.17,1.54,3.3,2.74,6.38,3.58l11.18,2.99c2.16,.55,3.94,1.32,5.35,2.31,1.4,1,2.52,2.14,3.35,3.43,.83,1.29,1.41,2.68,1.76,4.14,.34,1.47,.52,2.97,.52,4.52,0,2.09-.4,4.01-1.21,5.75-.81,1.74-1.98,3.22-3.52,4.44-1.54,1.22-3.42,2.17-5.62,2.84s-4.69,1.01-7.45,1.01h-.07c-4.92,0-9.04-1.04-12.35-3.14-3.31-2.09-5.68-5.08-7.11-8.96l4.42-3.29c1.29,3.48,3.21,6.06,5.76,7.73,2.55,1.67,5.69,2.5,9.42,2.5h.07c4.05,0,7.11-.82,9.18-2.46,2.07-1.64,3.1-3.81,3.1-6.5,0-2.09-.58-3.94-1.73-5.56-1.15-1.62-3.17-2.82-6.07-3.62l-11.8-3.29c-1.98-.55-3.65-1.27-5-2.17-1.36-.9-2.46-1.93-3.31-3.1-.85-1.17-1.46-2.43-1.83-3.77-.37-1.34-.55-2.74-.55-4.18,0-4.28,1.56-7.63,4.69-10.04,3.13-2.41,7.52-3.62,13.18-3.62h.07c4.32,0,7.92,.9,10.8,2.69,2.87,1.79,4.96,4.23,6.24,7.32l-3.24,4.03Z"/>
    <path d="M310.15,788.71h5.31v23.22h29.67v-23.22h5.31v51.67h-5.31v-23h-29.67v23h-5.31v-51.67Z"/>
    <path d="M359.42,814.54v-.07c0-3.98,.57-7.6,1.72-10.86,1.15-3.26,2.78-6.06,4.9-8.4,2.12-2.34,4.67-4.16,7.66-5.45,2.99-1.29,6.32-1.94,10-1.94h.07c3.68,0,7.01,.65,10,1.94,2.99,1.29,5.53,3.11,7.62,5.45,2.09,2.34,3.71,5.14,4.86,8.4,1.15,3.26,1.73,6.88,1.73,10.86v.07c0,3.98-.58,7.62-1.73,10.9-1.15,3.29-2.77,6.1-4.86,8.44-2.09,2.34-4.63,4.16-7.62,5.45-2.99,1.29-6.33,1.94-10,1.94h-.07c-3.68,0-7.02-.65-10-1.94-2.99-1.29-5.54-3.11-7.66-5.45-2.12-2.34-3.75-5.15-4.9-8.44-1.15-3.28-1.72-6.92-1.72-10.9Zm5.31,0c0,3.19,.45,6.1,1.35,8.74,.9,2.64,2.17,4.89,3.83,6.76,1.66,1.87,3.66,3.31,6,4.33,2.35,1.02,4.94,1.53,7.8,1.53h.07c2.85,0,5.44-.51,7.76-1.53,2.32-1.02,4.31-2.46,5.97-4.33,1.66-1.87,2.93-4.12,3.83-6.76,.9-2.64,1.35-5.55,1.35-8.74v-.07c0-3.18-.45-6.08-1.35-8.7-.9-2.61-2.17-4.85-3.83-6.72-1.66-1.87-3.65-3.31-5.97-4.33-2.32-1.02-4.91-1.53-7.76-1.53h-.07c-2.85,0-5.45,.51-7.8,1.53-2.35,1.02-4.35,2.46-6,4.33-1.66,1.87-2.93,4.11-3.83,6.72-.9,2.61-1.35,5.51-1.35,8.7v.07Z"/>
    <path d="M434.97,788.71c6.07,0,10.66,1.59,13.77,4.78,3.1,3.19,4.66,7.72,4.66,13.59v.08c0,5.87-1.55,10.42-4.66,13.62-3.11,3.21-7.69,4.82-13.77,4.82h-12.7v14.78h-5.31v-51.67h18.01Zm13.11,18.37c0-4.23-1.09-7.44-3.28-9.63-2.19-2.19-5.46-3.29-9.83-3.29h-12.7v25.98h12.7c4.37,0,7.65-1.11,9.83-3.32,2.18-2.21,3.28-5.44,3.28-9.67v-.08Z"/>
  </g>
</svg>